<mxfile host="app.diagrams.net" modified="2024-01-15T12:58:07.065Z" agent="Mozilla/5.0 (Windows NT 10.0; Win64; x64) AppleWebKit/537.36 (KHTML, like Gecko) Chrome/120.0.0.0 Safari/537.36" version="22.1.17" etag="fLGzXho9kx5-AUJ7B8Lh" type="github">
  <diagram name="第 1 页" id="Vx0BVYOuvoWx42NDQ-Pz">
    <mxGraphModel>
      <root>
        <mxCell id="0" />
        <mxCell id="1" parent="0" />
      </root>
    </mxGraphModel>
  </diagram>
</mxfile>
